<svg width="23" height="28" viewBox="0 0 23 28" fill="none" xmlns="http://www.w3.org/2000/svg">
<path d="M11.7302 0.365845C8.81391 0.369235 6.01802 1.51235 3.95586 3.54443C1.89371 5.57651 0.733677 8.33163 0.730236 11.2054C0.726743 13.5539 1.50522 15.8386 2.94624 17.7092C2.94624 17.7092 3.24624 18.0984 3.29524 18.1546L11.7302 27.9575L20.1692 18.1497C20.2132 18.0974 20.5142 17.7092 20.5142 17.7092L20.5152 17.7062C21.9555 15.8365 22.7337 13.5528 22.7302 11.2054C22.7268 8.33163 21.5668 5.57651 19.5046 3.54443C17.4425 1.51235 14.6466 0.369235 11.7302 0.365845ZM11.7302 15.1471C10.9391 15.1471 10.1658 14.9159 9.50796 14.4828C8.85016 14.0497 8.33747 13.4341 8.03472 12.7138C7.73197 11.9936 7.65275 11.2011 7.8071 10.4364C7.96144 9.67184 8.3424 8.9695 8.90181 8.41825C9.46122 7.867 10.174 7.49159 10.9499 7.3395C11.7258 7.18741 12.5301 7.26547 13.261 7.5638C13.9919 7.86214 14.6166 8.36735 15.0561 9.01556C15.4956 9.66376 15.7302 10.4258 15.7302 11.2054C15.7289 12.2504 15.3071 13.2522 14.5572 13.9912C13.8073 14.7301 12.7907 15.1458 11.7302 15.1471Z" fill="#FFD012"/>
</svg>
