<svg width="23" height="23" viewBox="0 0 23 23" fill="none" xmlns="http://www.w3.org/2000/svg">
<path d="M22.5893 17.8092L17.5081 13.1892C17.2679 12.9709 16.9523 12.8545 16.6278 12.8645C16.3034 12.8745 15.9956 13.0102 15.7693 13.243L12.7781 16.3192C12.0581 16.1817 10.6106 15.7305 9.12058 14.2442C7.63058 12.753 7.17933 11.3017 7.04558 10.5867L10.1193 7.59421C10.3523 7.36812 10.4882 7.06024 10.4983 6.73572C10.5083 6.4112 10.3917 6.09551 10.1731 5.85546L5.55433 0.77546C5.33563 0.534656 5.03168 0.38859 4.70702 0.368284C4.38236 0.347979 4.06257 0.455033 3.81558 0.66671L1.10308 2.99296C0.886966 3.20985 0.757977 3.49852 0.740577 3.80421C0.721827 4.11671 0.364327 11.5192 6.10433 17.2617C11.1118 22.268 17.3843 22.6342 19.1118 22.6342C19.3643 22.6342 19.5193 22.6267 19.5606 22.6242C19.8662 22.6071 20.1547 22.4775 20.3706 22.2605L22.6956 19.5467C22.9081 19.3005 23.0159 18.981 22.9961 18.6563C22.9762 18.3317 22.8303 18.0277 22.5893 17.8092Z" fill="#FFD012"/>
</svg>
