<svg width="30" height="30" viewBox="0 0 30 30" fill="none" xmlns="http://www.w3.org/2000/svg">
<g clip-path="url(#clip0_2_159)">
<path d="M14.9998 30C23.284 30 29.9998 23.2843 29.9998 15C29.9998 6.71573 23.284 0 14.9998 0C6.71548 0 -0.000244141 6.71573 -0.000244141 15C-0.000244141 23.2843 6.71548 30 14.9998 30Z" fill="#FFD012"/>
<path d="M11.9687 23.64C19.2953 23.64 23.302 17.5711 23.302 12.3067C23.302 12.1334 23.2976 11.9622 23.2909 11.7911C24.0687 11.2289 24.7442 10.5267 25.2776 9.72891C24.5642 10.0467 23.7953 10.26 22.9909 10.3556C23.8131 9.86224 24.4442 9.08224 24.742 8.15335C23.9731 8.60891 23.1198 8.94224 22.2131 9.12002C21.4865 8.34669 20.4509 7.86224 19.3065 7.86224C17.1065 7.86224 15.322 9.64669 15.322 11.8445C15.322 12.1578 15.3576 12.46 15.4265 12.7534C12.1153 12.5867 9.17979 11.0022 7.21757 8.59113C6.87534 9.18002 6.67757 9.86447 6.67757 10.5934C6.67757 11.9756 7.37979 13.1956 8.4509 13.9089C7.79757 13.8889 7.18423 13.7089 6.64646 13.4111C6.64646 13.4267 6.64646 13.4445 6.64646 13.4622C6.64646 15.3911 8.01979 17.0022 9.84201 17.3667C9.50646 17.4578 9.15534 17.5067 8.79312 17.5067C8.53757 17.5067 8.28646 17.4822 8.04423 17.4356C8.5509 19.0178 10.022 20.1689 11.7642 20.2022C10.3998 21.2711 8.68423 21.9067 6.81757 21.9067C6.49534 21.9067 6.17979 21.8889 5.86646 21.8511C7.62868 22.98 9.72201 23.64 11.9709 23.64" fill="white"/>
</g>
<defs>
<clipPath id="clip0_2_159">
<rect width="30" height="30" fill="white" transform="translate(-0.000244141)"/>
</clipPath>
</defs>
</svg>
